<svg xmlns="http://www.w3.org/2000/svg" width="90" height="90" viewBox="0 0 90 90" xmlns:xlink="http://www.w3.org/1999/xlink">
  <defs>
    <rect id="a" width="90" height="90" rx="20"/>
    <mask id="b" width="90" height="90" x="0" y="0" fill="white">
      <use xlink:href="#a"/>
    </mask>
  </defs>
  <g fill="none" fill-rule="evenodd">
    <use fill="#020202" stroke="#313131" stroke-width="2" mask="url(#b)" xlink:href="#a"/>
    <path fill="#FFFFFF" d="M56.014555,23 L59.6996719,23 C60.1022294,23 60.4285439,23.3263145 60.4285439,23.7288719 L60.4285439,65.985445 C60.4285439,66.3880024 60.1022294,66.7143169 59.6996719,66.7143169 L55.4327689,66.7143169 C55.1565973,66.7143169 54.9042114,66.5583597 54.7807827,66.3113738 L45.6519476,48.053575 C45.3832331,47.5164032 44.6166897,47.5164032 44.3479752,48.053575 L35.2191402,66.3113738 C35.0957115,66.5583597 34.843197,66.7143169 34.567154,66.7143169 L30.3002509,66.7143169 C29.8976935,66.7143169 29.571379,66.3880024 29.571379,65.985445 L29.571379,23.7288719 C29.571379,23.3263145 29.8976935,23 30.3002509,23 L33.9853678,23 C34.3879253,23 34.7142398,23.3263145 34.7142398,23.7288719 L34.7142398,52.7340927 C34.7142398,53.5032075 35.7511691,53.7480077 36.0950979,53.0600215 L41.9236307,41.402956 C42.0470593,41.1559701 42.2995738,41.0000129 42.5756168,41.0000129 L47.424306,41.0000129 C47.7004776,41.0000129 47.9528635,41.1559701 48.0762922,41.402956 L53.9048249,53.0600215 C54.2488823,53.7480077 55.2856831,53.5032075 55.2856831,52.7340927 L55.2856831,23.7288719 C55.2856831,23.3263145 55.6119976,23 56.014555,23 Z M81,43.0146514 L81,46.6996398 C81,47.1021972 80.6736855,47.4286403 80.2711281,47.4286403 L71.4431503,47.4286403 C71.0405929,47.4286403 70.7142784,47.7549548 70.7142784,48.1575123 L70.7142784,58.2710766 C70.7142784,58.6736341 70.3879638,59.0000771 69.9854064,59.0000771 L66.3002895,59.0000771 C65.8977321,59.0000771 65.5714176,58.6736341 65.5714176,58.2710766 L65.5714176,31.4432146 C65.5714176,31.0406572 65.8977321,30.7143427 66.3002895,30.7143427 L69.9854064,30.7143427 C70.3879638,30.7143427 70.7142784,31.0406572 70.7142784,31.4432146 L70.7142784,41.556779 C70.7142784,41.9593364 71.0405929,42.2857795 71.4431503,42.2857795 L80.2711281,42.2857795 C80.6736855,42.2857795 81,42.612094 81,43.0146514 Z M20.0145936,30.7142912 L23.6995819,30.7142912 C24.1021394,30.7142912 24.4285824,31.0406057 24.4285824,31.4431632 L24.4285824,58.2711538 C24.4285824,58.6737112 24.1021394,59.0000257 23.6995819,59.0000257 L20.0145936,59.0000257 C19.6120362,59.0000257 19.2857216,58.6737112 19.2857216,58.2711538 L19.2857216,48.1574608 C19.2857216,47.7549034 18.9592785,47.4285889 18.5567211,47.4285889 L9.72887195,47.4285889 C9.32631452,47.4285889 9,47.1022744 9,46.6997169 L9,43.0146 C9,42.6120426 9.32631452,42.2857281 9.72887195,42.2857281 L18.5567211,42.2857281 C18.9592785,42.2857281 19.2857216,41.9594135 19.2857216,41.5568561 L19.2857216,31.4431632 C19.2857216,31.0406057 19.6120362,30.7142912 20.0145936,30.7142912 Z"/>
  </g>
</svg>
